<?xml version="1.0" encoding="UTF-8"?>
<svg id="_图层_1" data-name="图层_1" xmlns="http://www.w3.org/2000/svg" xmlns:xlink="http://www.w3.org/1999/xlink" viewBox="0 0 64 64">
  <defs>
    <style>
      .cls-1 {
        fill: #da7280;
      }

      .cls-2 {
        letter-spacing: .1em;
      }

      .cls-2, .cls-3, .cls-4 {
        fill: #fff;
      }

      .cls-2, .cls-4 {
        font-family: SegoePrint-Bold, 'Segoe Print';
        font-size: 6px;
        font-weight: 700;
        opacity: .8;
      }

      .cls-4 {
        letter-spacing: .08em;
      }

      .cls-5 {
        fill: none;
      }

      .cls-6, .cls-7 {
        opacity: .8;
      }

      .cls-7 {
        fill: #ffeef0;
      }

      .cls-8 {
        fill: #eb7280;
      }

      .cls-9 {
        clip-path: url(#clippath);
      }
    </style>
    <clipPath id="clippath">
      <rect class="cls-5" width="64" height="64"/>
    </clipPath>
  </defs>
  <g class="cls-9">
    <g>
      <path class="cls-3" d="M32.13.5c17.67-.19,32.54,15.58,31.29,33.3-2.12,33.1-46.76,41.06-60.26,10.91C-5.94,24.26,9.43.37,31.89.5h.24Z"/>
      <path class="cls-8" d="M51.84,19.85c-.41,6.05-.97,14.7-1.4,20.97-.55,11.98-8.62,12.32-18.43,11.96-4.84-.07-9.63.37-12.57-1.22-5.35-2.82-5.77-7.49-6.06-13.71-.35-5.11-.87-13.2-1.2-18.01"/>
      <g class="cls-6">
        <path class="cls-3" d="M40.43,18.31v1c3.67,0,6.18.1,8.09.32.13.14.16.38.15,1.15,0,.2,0,.41,0,.63-.07,1.42-.19,3.25-.31,5.02-.05.68-.09,1.34-.13,1.97-.22,1.81-.29,3.78-.36,5.68-.26,7.04-.51,13.7-7.33,15.16l-.18.04c-1.67.29-3.82.33-5.7.33-.58,0-1.16,0-1.73,0-.56,0-1.11,0-1.65,0-.4,0-.79,0-1.16,0h-.3c-4.7,0-7.7-.1-9.98-2.11-2.97-2.69-3.12-5.09-3.39-9.45-.06-.9-.11-1.83-.2-2.84l-.25-3.63c-.22-3.26-.46-6.71-.63-9.58-.08-1.64-.03-2.31.21-2.42.62-.14,1.33-.19,2.43-.19.43,0,.89,0,1.38.02.6.01,1.25.02,1.97.02.47,0,.98,0,1.46-.02,1.34.03,2.79.05,4.43.05,2.3,0,4.64-.03,6.91-.06,2.21-.03,4.29-.06,6.28-.06v-1M40.43,18.31c-4.09,0-8.71.12-13.19.12-1.49,0-2.97-.01-4.41-.05-.53.01-1.02.02-1.49.02-1.32,0-2.4-.04-3.35-.04-1.03,0-1.9.04-2.71.23-.96.31-1.03,1.26-.92,3.43.25,3.99.6,9.06.88,13.23.53,6.13,0,9.42,3.92,12.97,2.61,2.29,5.93,2.36,10.65,2.36.1,0,.2,0,.3,0,.38,0,.77,0,1.16,0,1.09,0,2.23.02,3.38.02,2.1,0,4.19-.05,5.87-.34l.2-.04c9.67-2.07,7.48-13.45,8.5-21.73.15-2.29.36-5.09.45-7.07-.03-1.29.18-2.17-.77-2.75-2.25-.28-5.19-.36-8.47-.36h0Z"/>
      </g>
      <path class="cls-1" d="M51.73,26c-.63.93-1.72,1.39-3.34,1.87-3.79,1.08-8.17,2.28-12.04,3.36-3.72,1.05-4.82,1.08-8.43.07-3.72-1.02-7.91-2.19-11.56-3.21-5.44-.94-5.5-5.38-4.61-9.81.68-2.63,2.73-2.18,6.64-2.25,1.83,0,3.63,0,5.52,0,7.33.01,18.51-.03,24.91.02,1.25.07,2.51.18,3.12,1.36.85,1.84,1.18,6.18-.12,8.46l-.09.13Z"/>
      <path class="cls-7" d="M33.48,25.62c-.3,2.3-3.7,1.39-2.76-.77.68-1.31,2.66-.86,2.76.58v.19Z"/>
    </g>
  </g>
  <g>
    <text class="cls-2" transform="translate(33.42 41.35)"><tspan x="0" y="0">P</tspan></text>
    <text class="cls-4" transform="translate(26.34 41.35)"><tspan x="0" y="0">M</tspan></text>
  </g>
</svg>